<svg width="18" height="18" viewBox="0 0 18 18" fill="none" xmlns="http://www.w3.org/2000/svg">
<path fill-rule="evenodd" clip-rule="evenodd" d="M5.47803 9.80301C5.67248 10.0713 5.61259 10.4465 5.34426 10.6409C4.06577 11.5674 3.31126 12.7604 3.23198 14.2775C3.26684 14.3047 3.3067 14.3349 3.35161 14.3675C3.57527 14.5302 3.92415 14.7544 4.40573 14.981C5.36655 15.4331 6.86584 15.9 8.96995 15.9C11.0741 15.9 12.5733 15.4331 13.5342 14.981C14.0157 14.7544 14.3646 14.5302 14.5883 14.3675C14.634 14.3343 14.6746 14.3035 14.7099 14.2759C14.6817 13.5268 14.5327 12.8904 14.2333 12.3389C13.9005 11.7257 13.3562 11.1702 12.4824 10.6778C12.1937 10.5152 12.0915 10.1492 12.2542 9.86055C12.4168 9.57185 12.7827 9.46969 13.0714 9.63235C14.1033 10.2138 14.8282 10.9193 15.288 11.7664C15.7457 12.6096 15.915 13.5458 15.9149 14.5478C15.9148 14.7069 15.8516 14.8595 15.7391 14.972L15.3149 14.5477C15.7391 14.972 15.7391 14.972 15.7391 14.972L15.7381 14.973L15.7369 14.9742L15.7339 14.9771L15.7258 14.9851C15.7193 14.9913 15.7109 14.9993 15.7005 15.009C15.6797 15.0283 15.6509 15.0544 15.614 15.0862C15.5402 15.1498 15.4339 15.2363 15.2941 15.338C15.0144 15.5414 14.6007 15.8053 14.0451 16.0668C12.9316 16.5907 11.2585 17.1 8.96995 17.1C6.68142 17.1 5.00825 16.5907 3.89477 16.0668C3.33919 15.8053 2.92546 15.5414 2.6458 15.338C2.50599 15.2363 2.39968 15.1498 2.32587 15.0862C2.28896 15.0544 2.26016 15.0283 2.23936 15.009C2.22896 14.9993 2.22055 14.9913 2.21412 14.9851L2.20596 14.9771L2.20299 14.9742L2.20178 14.973L2.20125 14.9725C2.20125 14.9725 2.20076 14.972 2.62502 14.5477L2.20125 14.9725C2.08876 14.86 2.02506 14.707 2.02502 14.5479C2.02451 12.4536 3.02997 10.8361 4.64011 9.66924C4.90844 9.4748 5.28358 9.53469 5.47803 9.80301Z" fill="white"/>
<path fill-rule="evenodd" clip-rule="evenodd" d="M8.96999 2.09999C7.41448 2.09999 6.15349 3.36098 6.15349 4.91649C6.15349 5.71688 6.4856 6.69507 7.04177 7.47077C7.60463 8.25579 8.30081 8.70913 8.96999 8.70913C9.63916 8.70913 10.3354 8.25579 10.8982 7.47077C11.4544 6.69507 11.7865 5.71688 11.7865 4.91649C11.7865 3.36098 10.5255 2.09999 8.96999 2.09999ZM4.95349 4.91649C4.95349 2.69824 6.75174 0.899994 8.96999 0.899994C11.1882 0.899994 12.9865 2.69824 12.9865 4.91649C12.9865 6.00299 12.5538 7.22111 11.8734 8.17001C11.1998 9.10959 10.1877 9.90913 8.96999 9.90913C7.75228 9.90913 6.74022 9.10959 6.06654 8.17001C5.38619 7.22111 4.95349 6.00299 4.95349 4.91649Z" fill="white"/>
</svg>
