<svg width="32" height="32" viewBox="0 0 32 32" fill="none" xmlns="http://www.w3.org/2000/svg">
<path fill-rule="evenodd" clip-rule="evenodd" d="M9.73865 17.4276C10.0843 17.9046 9.97786 18.5715 9.50084 18.9172V18.9172C7.22797 20.5643 5.88662 22.6851 5.74567 25.3822C5.80765 25.4305 5.87851 25.4842 5.95834 25.5423C6.35597 25.8314 6.97619 26.2299 7.83233 26.6328C9.54046 27.4367 12.2059 28.2667 15.9465 28.2667C19.6871 28.2667 22.3526 27.4367 24.0607 26.6328C24.9168 26.2299 25.537 25.8314 25.9347 25.5423C26.016 25.4831 26.088 25.4285 26.1509 25.3794C26.1008 24.0476 25.8358 22.9162 25.3036 21.9357C24.7119 20.8456 23.7443 19.8581 22.1908 18.9828V18.9828C21.6776 18.6936 21.4959 18.0431 21.7851 17.5299V17.5299C22.0743 17.0166 22.7248 16.835 23.238 17.1242V17.1242C25.0725 18.1578 26.3612 19.4121 27.1786 20.918C27.9922 22.4171 28.2933 24.0814 28.293 25.8628C28.293 26.1456 28.1806 26.4169 27.9806 26.6169L27.2264 25.8626C27.9806 26.6169 27.9806 26.6169 27.9806 26.6169L27.9788 26.6187L27.9766 26.6208L27.9714 26.626L27.9569 26.6401C27.9454 26.6512 27.9305 26.6654 27.912 26.6826C27.875 26.717 27.8238 26.7633 27.7582 26.8199C27.627 26.9329 27.438 27.0868 27.1894 27.2676C26.6923 27.6291 25.9567 28.0983 24.969 28.5631C22.9895 29.4947 20.015 30.4 15.9465 30.4C11.878 30.4 8.90348 29.4947 6.92396 28.5631C5.93628 28.0983 5.20075 27.6291 4.70358 27.2676C4.45502 27.0868 4.26602 26.9329 4.1348 26.8199C4.06919 26.7633 4.018 26.717 3.98102 26.6826C3.96252 26.6654 3.94758 26.6512 3.93615 26.6401L3.92164 26.626L3.91636 26.6208L3.91422 26.6187L3.91326 26.6177C3.91326 26.6177 3.9124 26.6169 4.66664 25.8626L3.91326 26.6177C3.71329 26.4178 3.60005 26.1457 3.59998 25.8629C3.59906 22.1398 5.38655 19.2641 8.24902 17.1898V17.1898C8.72604 16.8441 9.39297 16.9505 9.73865 17.4276V17.4276Z" fill="white"/>
<path fill-rule="evenodd" clip-rule="evenodd" d="M15.9465 3.73334C13.1811 3.73334 10.9394 5.9751 10.9394 8.74045C10.9394 10.1634 11.5298 11.9024 12.5185 13.2814C13.5192 14.677 14.7568 15.4829 15.9465 15.4829C17.1361 15.4829 18.3738 14.677 19.3744 13.2814C20.3632 11.9024 20.9536 10.1634 20.9536 8.74045C20.9536 5.9751 18.7118 3.73334 15.9465 3.73334ZM8.80603 8.74045C8.80603 4.79689 12.0029 1.60001 15.9465 1.60001C19.89 1.60001 23.0869 4.79689 23.0869 8.74045C23.0869 10.672 22.3177 12.8376 21.1081 14.5245C19.9105 16.1948 18.1113 17.6162 15.9465 17.6162C13.7817 17.6162 11.9824 16.1948 10.7848 14.5245C9.57528 12.8376 8.80603 10.672 8.80603 8.74045Z" fill="white"/>
</svg>
