<svg width="20" height="20" viewBox="0 0 20 20" fill="none" xmlns="http://www.w3.org/2000/svg">
<path fill-rule="evenodd" clip-rule="evenodd" d="M6.08667 10.8922C6.30272 11.1903 6.23618 11.6072 5.93804 11.8232C4.5175 12.8527 3.67915 14.1782 3.59106 15.8638C3.6298 15.8941 3.67409 15.9276 3.72398 15.9639C3.9725 16.1446 4.36014 16.3937 4.89522 16.6455C5.9628 17.1479 7.62868 17.6667 9.96658 17.6667C12.3045 17.6667 13.9704 17.1479 15.0379 16.6455C15.573 16.3937 15.9607 16.1446 16.2092 15.9639C16.26 15.9269 16.305 15.8928 16.3443 15.8621C16.313 15.0297 16.1474 14.3226 15.8148 13.7098C15.445 13.0285 14.8402 12.4113 13.8693 11.8642C13.5485 11.6835 13.435 11.2769 13.6157 10.9561C13.7965 10.6354 14.203 10.5219 14.5238 10.7026C15.6703 11.3486 16.4757 12.1326 16.9866 13.0738C17.4952 14.0107 17.6833 15.0509 17.6832 16.1642C17.6831 16.341 17.6129 16.5105 17.4879 16.6355L17.0165 16.1641C17.4879 16.6355 17.4879 16.6355 17.4879 16.6355L17.4868 16.6367L17.4854 16.638L17.4821 16.6412L17.4731 16.6501C17.4659 16.657 17.4566 16.6658 17.445 16.6766C17.4219 16.6981 17.3899 16.7271 17.3489 16.7624C17.2669 16.8331 17.1488 16.9292 16.9934 17.0422C16.6827 17.2682 16.223 17.5614 15.6057 17.8519C14.3685 18.4341 12.5094 19 9.96658 19C7.42377 19 5.56469 18.4341 4.32749 17.8519C3.71019 17.5614 3.25048 17.2682 2.93975 17.0422C2.7844 16.9292 2.66628 16.8331 2.58427 16.7624C2.54326 16.7271 2.51127 16.6981 2.48815 16.6766C2.47659 16.6658 2.46725 16.657 2.46011 16.6501L2.45104 16.6412L2.44774 16.638L2.4464 16.6367L2.44581 16.6361C2.44581 16.6361 2.44526 16.6355 2.91667 16.1641L2.44581 16.6361C2.32082 16.5111 2.25004 16.341 2.25 16.1643C2.24942 13.8374 3.36661 12.04 5.15565 10.7436C5.45379 10.5275 5.87062 10.5941 6.08667 10.8922Z" fill="white"/>
<path fill-rule="evenodd" clip-rule="evenodd" d="M9.96656 2.33333C8.23822 2.33333 6.83712 3.73443 6.83712 5.46277C6.83712 6.35209 7.20612 7.43897 7.8241 8.30087C8.44949 9.17311 9.22303 9.67682 9.96656 9.67682C10.7101 9.67682 11.4836 9.17311 12.109 8.30087C12.727 7.43897 13.096 6.35209 13.096 5.46277C13.096 3.73443 11.6949 2.33333 9.96656 2.33333ZM5.50378 5.46277C5.50378 2.99805 7.50184 1 9.96656 1C12.4313 1 14.4293 2.99805 14.4293 5.46277C14.4293 6.66999 13.9486 8.02347 13.1926 9.07779C12.4441 10.1218 11.3196 11.0102 9.96656 11.0102C8.61355 11.0102 7.48904 10.1218 6.74051 9.07779C5.98456 8.02347 5.50378 6.66999 5.50378 5.46277Z" fill="white"/>
</svg>
