<svg width="14" height="14" viewBox="0 0 14 14" fill="none" xmlns="http://www.w3.org/2000/svg">
<path fill-rule="evenodd" clip-rule="evenodd" d="M4.26062 7.62455C4.41186 7.83325 4.36528 8.12503 4.15658 8.27627C3.1622 8.99686 2.57536 9.92474 2.51369 11.1047C2.54081 11.1259 2.57181 11.1493 2.60674 11.1747C2.7807 11.3012 3.05205 11.4756 3.42661 11.6519C4.17391 12.0035 5.34003 12.3667 6.97656 12.3667C8.61309 12.3667 9.7792 12.0035 10.5265 11.6519C10.9011 11.4756 11.1724 11.3012 11.3464 11.1747C11.382 11.1488 11.4135 11.125 11.441 11.1035C11.4191 10.5208 11.3031 10.0258 11.0703 9.59688C10.8114 9.11996 10.3881 8.68792 9.70844 8.30496C9.4839 8.17844 9.40443 7.89385 9.53095 7.6693C9.65747 7.44476 9.94206 7.3653 10.1666 7.49182C10.9692 7.94404 11.533 8.49281 11.8906 9.15163C12.2466 9.80747 12.3783 10.5356 12.3782 11.315C12.3781 11.4387 12.329 11.5574 12.2415 11.6449L11.9115 11.3149C12.2415 11.6449 12.2415 11.6449 12.2415 11.6449L12.2407 11.6457L12.2397 11.6466L12.2374 11.6489L12.2311 11.6551C12.2261 11.6599 12.2196 11.6661 12.2115 11.6736C12.1953 11.6887 12.1729 11.7089 12.1442 11.7337C12.0868 11.7831 12.0041 11.8505 11.8953 11.9296C11.6778 12.0877 11.356 12.293 10.9239 12.4964C10.0579 12.9039 8.75652 13.3 6.97656 13.3C5.19659 13.3 3.89523 12.9039 3.0292 12.4964C2.59708 12.293 2.27529 12.0877 2.05778 11.9296C1.94903 11.8505 1.86635 11.7831 1.80894 11.7337C1.78023 11.7089 1.75784 11.6887 1.74166 11.6736C1.73357 11.6661 1.72703 11.6599 1.72203 11.6551L1.71568 11.6489L1.71337 11.6466L1.71243 11.6457L1.71202 11.6452C1.71202 11.6452 1.71163 11.6449 2.04162 11.3149L1.71202 11.6452C1.62453 11.5578 1.57498 11.4387 1.57495 11.315C1.57455 9.68616 2.35658 8.42804 3.60891 7.52051C3.8176 7.36927 4.10939 7.41586 4.26062 7.62455Z" fill="white"/>
<path fill-rule="evenodd" clip-rule="evenodd" d="M6.9766 1.63332C5.76676 1.63332 4.78599 2.61408 4.78599 3.82392C4.78599 4.44645 5.0443 5.20726 5.47688 5.81059C5.91465 6.42116 6.45613 6.77375 6.9766 6.77375C7.49707 6.77375 8.03855 6.42116 8.47633 5.81059C8.90891 5.20726 9.16721 4.44645 9.16721 3.82392C9.16721 2.61408 8.18644 1.63332 6.9766 1.63332ZM3.85266 3.82392C3.85266 2.09862 5.2513 0.699982 6.9766 0.699982C8.70191 0.699982 10.1005 2.09862 10.1005 3.82392C10.1005 4.66898 9.764 5.61641 9.23484 6.35444C8.71087 7.08522 7.92371 7.70709 6.9766 7.70709C6.0295 7.70709 5.24234 7.08522 4.71837 6.35444C4.18921 5.61641 3.85266 4.66898 3.85266 3.82392Z" fill="white"/>
</svg>
