<svg width="14" height="14" viewBox="0 0 14 14" fill="none" xmlns="http://www.w3.org/2000/svg">
<path fill-rule="evenodd" clip-rule="evenodd" d="M5.25 12.25C5.25 12.1898 5.29922 12.1406 5.35938 12.1406H8.64062C8.70078 12.1406 8.75 12.1898 8.75 12.25V12.6875C8.75 12.9295 8.55449 13.125 8.3125 13.125H5.6875C5.44551 13.125 5.25 12.9295 5.25 12.6875V12.25ZM2.51562 5.35938C2.51562 2.8834 4.52402 0.875 7 0.875C9.47598 0.875 11.4844 2.8834 11.4844 5.35938C11.4844 7.01914 10.582 8.46836 9.24219 9.24355V10.8281C9.24219 11.0701 9.04668 11.2656 8.80469 11.2656H5.19531C4.95332 11.2656 4.75781 11.0701 4.75781 10.8281V9.24355C3.41797 8.46836 2.51562 7.01914 2.51562 5.35938Z" fill="#00A499"/>
</svg>
