<svg xmlns="http://www.w3.org/2000/svg" width="12" height="12" viewBox="0 0 12 12" fill="none">
    <circle cx="6" cy="6" r="5" fill="#F5222D"/>
    <path fill-rule="evenodd" clip-rule="evenodd" d="M7.00547 7.57136C7.16168 7.72757 7.41494 7.72757 7.57115 7.57136C7.72736 7.41515 7.72736 7.16188 7.57115 7.00567L6.56554 6.00006L7.57127 4.99433C7.72748 4.83812 7.72748 4.58485 7.57127 4.42864C7.41506 4.27243 7.1618 4.27243 7.00559 4.42864L5.99986 5.43437L4.99414 4.42866C4.83793 4.27245 4.58467 4.27245 4.42846 4.42866C4.27225 4.58487 4.27225 4.83813 4.42846 4.99434L5.43417 6.00006L4.42858 7.00565C4.27237 7.16186 4.27237 7.41513 4.42858 7.57134C4.58479 7.72755 4.83805 7.72755 4.99426 7.57134L5.99986 6.56574L7.00547 7.57136Z" fill="white"/>
</svg>