<svg width="16" height="16" viewBox="0 0 16 16" fill="none" xmlns="http://www.w3.org/2000/svg">
<circle cx="8.00016" cy="8.00001" r="6.66667" fill="#BBBCBF"/>
<path fill-rule="evenodd" clip-rule="evenodd" d="M9.34063 10.0952C9.54891 10.3034 9.88659 10.3034 10.0949 10.0952C10.3032 9.88688 10.3032 9.54919 10.0949 9.34091L8.75406 8.0001L10.095 6.65912C10.3033 6.45084 10.3033 6.11315 10.095 5.90487C9.88675 5.69659 9.54906 5.69659 9.34078 5.90487L7.99981 7.24585L6.65886 5.9049C6.45058 5.69662 6.11289 5.69662 5.90461 5.9049C5.69633 6.11318 5.69633 6.45087 5.90461 6.65915L7.24556 8.0001L5.90477 9.34089C5.69649 9.54917 5.69649 9.88686 5.90477 10.0951C6.11305 10.3034 6.45074 10.3034 6.65902 10.0951L7.99981 8.75434L9.34063 10.0952Z" fill="white"/>
</svg>
