<svg width="18" height="18" viewBox="0 0 18 18" fill="none" xmlns="http://www.w3.org/2000/svg">
<path d="M3.375 9L10.5 5.25L13.5 6.75L13.125 9.375L8.25 13.875L3.375 9Z" fill="white"/>
<path fill-rule="evenodd" clip-rule="evenodd" d="M16.5 9C16.5 13.1421 13.1421 16.5 9 16.5C4.85786 16.5 1.5 13.1421 1.5 9C1.5 4.85786 4.85786 1.5 9 1.5C13.1421 1.5 16.5 4.85786 16.5 9ZM12.5479 7.55029C12.7823 7.31597 12.7823 6.93608 12.5479 6.70176C12.3136 6.46745 11.9337 6.46745 11.6994 6.70176L7.74867 10.6525L6.29794 9.20176C6.06362 8.96745 5.68373 8.96745 5.44941 9.20176C5.2151 9.43608 5.2151 9.81597 5.44941 10.0503L7.20397 11.8048C7.5048 12.1057 7.99255 12.1057 8.29338 11.8048L12.5479 7.55029Z" fill="#00A100"/>
</svg>
