<svg width="18" height="18" viewBox="0 0 18 18" fill="none" xmlns="http://www.w3.org/2000/svg">
<path fill-rule="evenodd" clip-rule="evenodd" d="M13.5078 14.3566C13.7421 14.5909 14.122 14.5909 14.3563 14.3566C14.5906 14.1223 14.5906 13.7424 14.3563 13.5081L9.95485 9.10663L14.4629 4.59856C14.6972 4.36425 14.6972 3.98435 14.4629 3.75003C14.2286 3.51572 13.8487 3.51572 13.6144 3.75003L9.10632 8.2581L4.59824 3.75002C4.36392 3.5157 3.98403 3.5157 3.74971 3.75002C3.5154 3.98433 3.5154 4.36423 3.74971 4.59854L8.25779 9.10663L3.85631 13.5081C3.622 13.7424 3.622 14.1223 3.85631 14.3566C4.09063 14.5909 4.47053 14.5909 4.70484 14.3566L9.10632 9.95515L13.5078 14.3566Z" fill="#000D0B"/>
</svg>
