<svg width="18" height="18" viewBox="0 0 18 18" fill="none" xmlns="http://www.w3.org/2000/svg">
<circle cx="9" cy="9" r="7.5" fill="#F5222D"/>
<path fill-rule="evenodd" clip-rule="evenodd" d="M10.5083 11.3571C10.7426 11.5914 11.1225 11.5914 11.3569 11.3571C11.5912 11.1228 11.5912 10.7429 11.3569 10.5085L9.84843 9.00012L11.357 7.49152C11.5913 7.2572 11.5913 6.87731 11.357 6.64299C11.1227 6.40868 10.7428 6.40868 10.5085 6.64299L8.99991 8.15159L7.49134 6.64302C7.25702 6.4087 6.87712 6.4087 6.64281 6.64302C6.40849 6.87733 6.40849 7.25723 6.64281 7.49155L8.15138 9.00012L6.64299 10.5085C6.40867 10.7428 6.40867 11.1227 6.64299 11.357C6.8773 11.5914 7.2572 11.5914 7.49151 11.357L8.99991 9.84864L10.5083 11.3571Z" fill="white"/>
</svg>
