<svg width="18" height="18" viewBox="0 0 18 18" fill="none" xmlns="http://www.w3.org/2000/svg">
<path d="M9 16.5C13.1421 16.5 16.5 13.1421 16.5 9C16.5 4.85786 13.1421 1.5 9 1.5C4.85786 1.5 1.5 4.85786 1.5 9C1.5 13.1421 4.85786 16.5 9 16.5Z" fill="#FFB81C"/>
<path fill-rule="evenodd" clip-rule="evenodd" d="M8.99985 10.125C8.66848 10.125 8.39985 9.85637 8.39985 9.525L8.39985 5.4C8.39985 5.06863 8.66848 4.8 8.99985 4.8C9.33122 4.8 9.59985 5.06863 9.59985 5.4L9.59985 9.525C9.59985 9.85637 9.33122 10.125 8.99985 10.125Z" fill="white"/>
<circle cx="9" cy="12.1875" r="0.9375" transform="rotate(-180 9 12.1875)" fill="white"/>
</svg>
