<svg width="12" height="12" viewBox="0 0 12 12" fill="none" xmlns="http://www.w3.org/2000/svg">
    <path
        d="M7.40625 10.4062H4.59375C4.54219 10.4062 4.5 10.4484 4.5 10.5V10.875C4.5 11.0824 4.66758 11.25 4.875 11.25H7.125C7.33242 11.25 7.5 11.0824 7.5 10.875V10.5C7.5 10.4484 7.45781 10.4062 7.40625 10.4062ZM6 0.75C3.87773 0.75 2.15625 2.47148 2.15625 4.59375C2.15625 6.01641 2.92969 7.25859 4.07812 7.92305V9.28125C4.07812 9.48867 4.2457 9.65625 4.45312 9.65625H7.54688C7.7543 9.65625 7.92188 9.48867 7.92188 9.28125V7.92305C9.07031 7.25859 9.84375 6.01641 9.84375 4.59375C9.84375 2.47148 8.12227 0.75 6 0.75ZM7.49883 7.19297L7.07812 7.43672V8.8125H4.92188V7.43672L4.50117 7.19297C3.57891 6.65977 3 5.67773 3 4.59375C3 2.93672 4.34297 1.59375 6 1.59375C7.65703 1.59375 9 2.93672 9 4.59375C9 5.67773 8.42109 6.65977 7.49883 7.19297Z"
        fill="#575859" />
</svg>
