<svg xmlns="http://www.w3.org/2000/svg" width="12" height="12" viewBox="0 0 12 12" fill="none">
    <path d="M2.25 6L7 3.5L9 4.5L8.75 6.25L5.5 9.25L2.25 6Z" fill="white"/>
    <path fill-rule="evenodd" clip-rule="evenodd" d="M11 6C11 8.76142 8.76142 11 6 11C3.23858 11 1 8.76142 1 6C1 3.23858 3.23858 1 6 1C8.76142 1 11 3.23858 11 6ZM8.36529 5.03353C8.5215 4.87732 8.5215 4.62405 8.36529 4.46784C8.20908 4.31163 7.95582 4.31163 7.79961 4.46784L5.16578 7.10166L4.19863 6.13451C4.04242 5.9783 3.78915 5.9783 3.63294 6.13451C3.47673 6.29072 3.47673 6.54398 3.63294 6.70019L4.80265 7.8699C5.0032 8.07045 5.32836 8.07045 5.52892 7.8699L8.36529 5.03353Z" fill="#00A100"/>
</svg>