<svg width="141" height="80" viewBox="0 0 141 80" fill="none" xmlns="http://www.w3.org/2000/svg">
<path d="M90.5742 20.4796C87.968 17.7924 84.8478 15.6569 81.3994 14.2002C77.951 12.7434 74.2448 11.9952 70.5014 12C55.0385 12 42.5 24.5356 42.5 40.001C42.4906 46.0759 44.4659 51.9876 48.1256 56.8365C53.2348 63.6168 61.3552 68 70.4986 68C85.9622 68 98.5 55.4644 98.5 39.999C98.5098 32.7069 95.6649 25.7006 90.5742 20.4796Z" fill="#FBA51D"/>
<path d="M66.5004 54.4462C66.4929 53.8616 66.6018 53.2815 66.8206 52.7408C67.0295 52.2285 67.3418 51.7665 67.7373 51.3844C68.1479 50.9921 68.6321 50.6879 69.161 50.49C69.7612 50.266 70.3968 50.1558 71.0362 50.1647C71.68 50.1568 72.3199 50.267 72.9251 50.49C73.4592 50.6857 73.9484 50.9901 74.3627 51.3844C74.7579 51.7668 75.0701 52.2288 75.2795 52.7408C75.4977 53.2817 75.6065 53.8617 75.5996 54.4462C75.6073 55.0263 75.4983 55.6018 75.2795 56.1376C75.0672 56.6439 74.7552 57.1007 74.3627 57.4798C73.9481 57.8738 73.459 58.1781 72.9251 58.3743C72.3197 58.5968 71.6799 58.7069 71.0362 58.6996C70.3968 58.7079 69.7614 58.5977 69.161 58.3743C68.6323 58.1759 68.1482 57.8718 67.7373 57.4798C67.3444 57.101 67.0323 56.6441 66.8206 56.1376C66.6012 55.602 66.4922 55.0263 66.5004 54.4462ZM74.4235 46.4893H67.6605L66.7 23H75.384L74.4235 46.4893Z" fill="white"/>
<path opacity="0.3" d="M23.3758 21.0749C23.9118 20.6035 24.755 20.8294 24.9835 21.5057L28.9929 33.371C29.2485 34.1275 28.558 34.8637 27.7867 34.6571L14.3724 31.0627C13.6011 30.856 13.3712 29.8732 13.9709 29.3459L23.3758 21.0749Z" fill="#FBA51D"/>
<path d="M62.4082 4.29931C62.6033 3.61259 63.4343 3.34551 63.9929 3.79004L66.7723 6.00196C67.3972 6.49921 67.2158 7.49214 66.4556 7.73647L62.7057 8.94157C61.9455 9.1859 61.2197 8.4845 61.4378 7.71634L62.4082 4.29931Z" fill="#FBA51D"/>
<path opacity="0.2" d="M36.8471 58.2317C37.2809 57.6648 38.152 57.722 38.508 58.3408L40.8648 62.437C41.263 63.1292 40.7293 63.9859 39.9325 63.9336L34.7036 63.5903C33.9068 63.538 33.4897 62.6188 33.975 61.9847L36.8471 58.2317Z" fill="#FBA51D"/>
<path opacity="0.5" d="M102.969 14.9135C103.61 14.5995 104.364 15.039 104.407 15.7516L104.545 18.0447C104.593 18.8418 103.733 19.3707 103.043 18.9687L100.842 17.6861C100.152 17.284 100.189 16.2753 100.906 15.9241L102.969 14.9135Z" fill="#FBA51D"/>
<path opacity="0.2" d="M120.862 36.8089C121.155 36.158 122.017 36.0153 122.504 36.5367L127.643 42.031C128.188 42.6143 127.864 43.57 127.076 43.7006L118.847 45.0648C118.059 45.1953 117.443 44.3954 117.771 43.6674L120.862 36.8089Z" fill="#FBA51D"/>
<path opacity="0.8" d="M104.777 52.006C104.861 51.297 105.639 50.901 106.261 51.2509L109.974 53.339C110.67 53.7304 110.649 54.7395 109.937 55.1018L105.728 57.2444C105.016 57.6066 104.188 57.0297 104.281 56.2366L104.777 52.006Z" fill="#FBA51D"/>
</svg>
