<svg width="140" height="80" viewBox="0 0 140 80" fill="none" xmlns="http://www.w3.org/2000/svg">
<g clip-path="url(#clip0_52280_7180)">
<path d="M90.0742 20.4796C87.468 17.7924 84.3478 15.6569 80.8994 14.2002C77.451 12.7434 73.7448 11.9952 70.0014 12C54.5385 12 42 24.5356 42 40.001C41.9906 46.0759 43.9659 51.9876 47.6256 56.8365C52.7348 63.6168 60.8552 68 69.9986 68C85.4622 68 98 55.4644 98 39.999C98.0098 32.7069 95.1649 25.7006 90.0742 20.4796Z" fill="#FF0000"/>
<path d="M82.7902 31.2565L78.7371 27.1895C78.614 27.0681 78.4481 27 78.2751 27C78.1022 27 77.9363 27.0681 77.8131 27.1895L70.0152 34.9875L62.2171 27.1965C62.156 27.1353 62.0835 27.0868 62.0036 27.0537C61.9237 27.0206 61.8381 27.0035 61.7516 27.0035C61.6652 27.0035 61.5796 27.0206 61.4997 27.0537C61.4198 27.0868 61.3473 27.1353 61.2862 27.1965L57.1841 31.2915C57.0662 31.4107 57 31.5717 57 31.7395C57 31.9072 57.0662 32.0682 57.1841 32.1875L65.0032 39.9995L57.1841 47.8185C57.0662 47.9377 57 48.0987 57 48.2665C57 48.4342 57.0662 48.5952 57.1841 48.7145L61.2371 52.8095C61.2985 52.8728 61.3719 52.9231 61.4531 52.9575C61.5343 52.9918 61.6215 53.0095 61.7096 53.0095C61.7978 53.0095 61.885 52.9918 61.9662 52.9575C62.0474 52.9231 62.1208 52.8728 62.1822 52.8095L69.9732 45.0255L77.7291 52.7745C77.7945 52.8433 77.8733 52.8981 77.9605 52.9356C78.0477 52.973 78.1417 52.9923 78.2367 52.9923C78.3316 52.9923 78.4256 52.973 78.5128 52.9356C78.6 52.8981 78.6788 52.8433 78.7442 52.7745L82.7341 48.7845C82.8688 48.6471 82.9443 48.4624 82.9443 48.27C82.9443 48.0776 82.8688 47.8929 82.7341 47.7555L75.0131 39.9995L82.7902 32.2225C82.9143 32.0923 82.9835 31.9193 82.9835 31.7395C82.9835 31.5596 82.9143 31.3867 82.7902 31.2565Z" fill="white"/>
<path opacity="0.5" d="M21.9793 23.1439C22.1561 23.1167 22.334 23.1861 22.4457 23.3258L26.07 27.8557C26.1814 27.995 26.2103 28.183 26.1457 28.3492L24.0421 33.7615C23.9773 33.9281 23.8287 34.0474 23.652 34.0746L17.9208 34.956C17.744 34.9832 17.5661 34.9139 17.4543 34.7742L13.83 30.2442C13.7186 30.105 13.6898 29.917 13.7544 29.7507L15.858 24.3384C15.9227 24.1719 16.0714 24.0525 16.248 24.0254L21.9793 23.1439Z" fill="#FFDAD6"/>
<path opacity="0.6" d="M38.46 58.1404C38.6316 58.1153 38.804 58.1808 38.9155 58.3136L40.756 60.5058C40.8753 60.6479 40.9061 60.8443 40.836 61.0161L39.7731 63.6223C39.7062 63.7862 39.5577 63.9026 39.3826 63.9282L36.4399 64.3595C36.2683 64.3847 36.0959 64.3191 35.9844 64.1863L34.1439 61.9942C34.0246 61.8521 33.9938 61.6556 34.0639 61.4838L35.1268 58.8776C35.1937 58.7137 35.3422 58.5974 35.5173 58.5717L38.46 58.1404Z" fill="#FF0000"/>
<path opacity="0.4" d="M64.3602 -0.0595192C64.5318 -0.0846653 64.7041 -0.0191153 64.8156 0.113692L66.6561 2.30585C66.7754 2.44793 66.8062 2.64439 66.7362 2.81618L65.6732 5.4224C65.6064 5.58628 65.4579 5.70262 65.2827 5.72828L62.34 6.15957C62.1684 6.18471 61.9961 6.11916 61.8846 5.98636L60.0441 3.7942C59.9248 3.65212 59.894 3.45566 59.964 3.28387L61.027 0.677652C61.0938 0.513766 61.2423 0.39743 61.4175 0.371765L64.3602 -0.0595192Z" fill="#FF0000"/>
<path opacity="0.7" d="M101.908 13.3385C102.077 13.3145 102.246 13.3779 102.357 13.5067L103.747 15.1164C103.872 15.26 103.904 15.4615 103.83 15.6366L103.032 17.5393C102.964 17.7015 102.816 17.8161 102.641 17.8409L100.391 18.1615C100.223 18.1855 100.054 18.1221 99.9425 17.9933L98.5525 16.3836C98.4284 16.24 98.3964 16.0384 98.4698 15.8634L99.2681 13.9607C99.3361 13.7984 99.4844 13.6839 99.6586 13.6591L101.908 13.3385Z" fill="#FF0000"/>
<path opacity="0.4" d="M119.708 43.4364C119.873 43.4137 120.038 43.4745 120.149 43.5987L122.637 46.3842C122.767 46.5297 122.8 46.7374 122.723 46.9163L121.292 50.2149C121.222 50.3751 121.074 50.4874 120.901 50.5112L116.892 51.0637C116.727 51.0864 116.562 51.0256 116.451 50.9014L113.963 48.1158C113.833 47.9704 113.8 47.7627 113.877 47.5838L115.308 44.2852C115.378 44.125 115.526 44.0127 115.699 43.9888L119.708 43.4364Z" fill="#FF0000"/>
<path opacity="0.1" d="M106.158 51.8343C106.319 51.8128 106.48 51.8711 106.591 51.9907L108.626 54.1942C108.762 54.3414 108.797 54.5554 108.715 54.7381L107.551 57.3327C107.48 57.4907 107.332 57.6007 107.161 57.6236L103.843 58.0657C103.681 58.0872 103.52 58.0289 103.409 57.9093L101.374 55.7057C101.238 55.5586 101.203 55.3446 101.285 55.1618L102.449 52.5673C102.52 52.4093 102.668 52.2992 102.839 52.2764L106.158 51.8343Z" fill="#FF0000"/>
</g>
<defs>
<clipPath id="clip0_52280_7180">
<rect width="140" height="80" fill="white"/>
</clipPath>
</defs>
</svg>
