<svg width="140" height="80" viewBox="0 0 140 80" fill="none" xmlns="http://www.w3.org/2000/svg">
<g clip-path="url(#clip0_52280_7218)">
<path opacity="0.3" d="M27.125 28.3152C27.125 28.6162 26.873 28.7352 26.698 28.7772C24.465 29.4002 21.889 30.3032 20.286 31.9762C18.319 34.0272 17.486 37.0792 16.786 40.1942C16.751 40.2782 16.604 40.6282 16.338 40.6212C16.072 40.6142 15.932 40.3202 15.904 40.2362C15.365 37.6952 14.644 34.8392 13.258 33.0052C11.515 30.7022 8.93198 29.6172 6.29998 28.8612C6.29998 28.8612 5.59998 28.6862 5.59998 28.3292C5.59998 27.9722 6.08998 27.8602 6.08998 27.8602C8.48398 27.1952 11.088 26.2852 12.761 24.3602C14.434 22.4352 15.288 19.4602 15.904 16.5202C15.9017 16.4852 15.9017 16.4501 15.904 16.4152C15.9411 16.321 16.0042 16.2394 16.0861 16.1799C16.1679 16.1204 16.265 16.0854 16.366 16.0792C16.695 16.0792 16.842 16.6532 16.842 16.6532C17.472 19.3412 18.466 22.1972 20.006 24.0802C21.77 26.2222 24.206 27.1882 26.761 27.8882C26.8538 27.921 26.9364 27.9778 27.0003 28.0528C27.0642 28.1278 27.1072 28.2183 27.125 28.3152Z" fill="#1AAF32"/>
<path opacity="0.3" d="M113.358 59.484C113.358 59.6214 113.243 59.6757 113.164 59.6949C112.147 59.9792 110.974 60.3913 110.244 61.1548C109.349 62.0907 108.969 63.4836 108.651 64.9051C108.635 64.9434 108.568 65.1032 108.447 65.1C108.326 65.0968 108.262 64.9626 108.249 64.9243C108.004 63.7647 107.676 62.4613 107.045 61.6244C106.251 60.5734 105.075 60.0782 103.877 59.7332C103.877 59.7332 103.558 59.6533 103.558 59.4904C103.558 59.3275 103.781 59.2764 103.781 59.2764C104.871 58.9729 106.057 58.5576 106.818 57.6791C107.58 56.8006 107.969 55.443 108.249 54.1013C108.248 54.0853 108.248 54.0693 108.249 54.0534C108.266 54.0104 108.295 53.9732 108.332 53.946C108.369 53.9188 108.414 53.9029 108.46 53.9C108.609 53.9 108.676 54.162 108.676 54.162C108.963 55.3887 109.416 56.692 110.117 57.5513C110.92 58.5289 112.029 58.9697 113.192 59.2892C113.235 59.3042 113.272 59.3301 113.301 59.3643C113.33 59.3985 113.35 59.4398 113.358 59.484Z" fill="#1AAF32"/>
<path opacity="0.3" d="M113.358 13.292C113.358 13.3607 113.301 13.3878 113.261 13.3974C112.752 13.5396 112.166 13.7456 111.801 14.1274C111.353 14.5954 111.164 15.2918 111.004 16.0025C110.996 16.0217 110.963 16.1016 110.902 16.1C110.842 16.0984 110.81 16.0313 110.804 16.0121C110.681 15.4323 110.517 14.7806 110.201 14.3622C109.805 13.8367 109.217 13.5891 108.617 13.4166C108.617 13.4166 108.458 13.3767 108.458 13.2952C108.458 13.2137 108.57 13.1882 108.57 13.1882C109.115 13.0364 109.707 12.8288 110.088 12.3896C110.469 11.9503 110.663 11.2715 110.804 10.6006C110.803 10.5926 110.803 10.5846 110.804 10.5767C110.812 10.5552 110.826 10.5366 110.845 10.523C110.864 10.5094 110.886 10.5014 110.909 10.5C110.984 10.5 111.017 10.631 111.017 10.631C111.161 11.2443 111.387 11.896 111.737 12.3257C112.139 12.8144 112.694 13.0348 113.275 13.1946C113.296 13.2021 113.315 13.215 113.33 13.2321C113.344 13.2492 113.354 13.2699 113.358 13.292Z" fill="#1AAF32"/>
<path opacity="0.7" d="M66.4578 3.93703C66.4578 4.04864 66.3677 4.09276 66.3051 4.10833C65.5063 4.33934 64.5848 4.67416 64.0113 5.29449C63.3077 6.05499 63.0097 7.18664 62.7593 8.34166C62.7468 8.3728 62.6942 8.50258 62.599 8.49999C62.5039 8.49739 62.4538 8.38838 62.4438 8.35723C62.251 7.41505 61.9931 6.35607 61.4973 5.67604C60.8737 4.82211 59.9497 4.4198 59.0082 4.13948C59.0082 4.13948 58.7578 4.07459 58.7578 3.94222C58.7578 3.80985 58.9331 3.76832 58.9331 3.76832C59.7895 3.52174 60.721 3.18432 61.3195 2.47055C61.9179 1.75677 62.2234 0.65367 62.4438 -0.436457C62.443 -0.44942 62.443 -0.462426 62.4438 -0.47539C62.4571 -0.510297 62.4797 -0.540559 62.5089 -0.562626C62.5382 -0.584693 62.5729 -0.59765 62.6091 -0.599976C62.7268 -0.599976 62.7793 -0.387141 62.7793 -0.387141C63.0047 0.609546 63.3603 1.66853 63.9112 2.36673C64.5422 3.16096 65.4136 3.51915 66.3276 3.7787C66.3608 3.79089 66.3904 3.81194 66.4132 3.83974C66.4361 3.86754 66.4515 3.9011 66.4578 3.93703Z" fill="#1AAF32"/>
<path d="M90.0742 20.4796C87.468 17.7924 84.3478 15.6569 80.8994 14.2002C77.451 12.7434 73.7448 11.9952 70.0014 12C54.5385 12 42 24.5356 42 40.001C41.9906 46.0759 43.9659 51.9876 47.6256 56.8365C52.7348 63.6168 60.8552 68 69.9986 68C85.4622 68 98 55.4644 98 39.999C98.0098 32.7069 95.1649 25.7006 90.0742 20.4796Z" fill="#1AAF32"/>
<path d="M59.903 37.0771L64.5727 41.8002C64.5727 41.8002 65.4215 42.9334 66.5067 41.6111C67.592 40.2889 78.252 26.6385 78.252 26.6385C78.252 26.6385 78.8179 25.5524 79.9025 26.2132C80.9872 26.8741 84.5723 29.7089 84.5723 29.7089C84.5723 29.7089 85.3771 30.1335 84.5252 31.2673C83.6734 32.4012 66.365 53.7024 66.365 53.7024C66.365 53.7024 65.5602 54.4581 64.6668 53.5611C63.7735 52.6641 54.3368 42.2726 54.3368 42.2726C54.3368 42.2726 53.4403 41.5169 54.5726 40.4302C55.7049 39.3435 58.3936 36.699 58.3936 36.699C58.3936 36.699 59.2894 36.1324 59.903 37.0771Z" fill="white"/>
<path opacity="0.5" d="M41.1747 60.9979C40.3599 61.2009 39.357 61.4958 38.7527 62.0909C38.0173 62.8182 37.7464 63.9191 37.506 65.0194C37.5022 65.0419 37.4902 65.0624 37.4723 65.0772C37.4544 65.0919 37.4317 65.1 37.4083 65.1C37.3848 65.1 37.3621 65.0919 37.3442 65.0772C37.3263 65.0624 37.3144 65.0419 37.3105 65.0194C37.1163 64.1367 36.8664 63.0781 36.3416 62.4228C35.6741 61.5897 34.6441 61.2491 33.6365 60.9972C33.6141 60.9921 33.5942 60.9798 33.58 60.9622C33.5657 60.9447 33.558 60.923 33.558 60.9007C33.558 60.8783 33.5657 60.8566 33.58 60.8391C33.5942 60.8216 33.6141 60.8093 33.6365 60.8041C34.5192 60.5833 35.5309 60.291 36.1623 59.6139C36.8209 58.9084 37.0858 57.8035 37.3105 56.7806C37.3144 56.7581 37.3263 56.7376 37.3442 56.7229C37.3621 56.7081 37.3848 56.7 37.4083 56.7C37.4317 56.7 37.4544 56.7081 37.4723 56.7229C37.4902 56.7376 37.5022 56.7581 37.506 56.7806C37.7159 57.7414 38.0744 58.8304 38.6712 59.5187C39.3196 60.2626 40.2329 60.5681 41.1747 60.8028C41.1981 60.807 41.2192 60.8191 41.2344 60.8369C41.2496 60.8547 41.258 60.8772 41.258 60.9003C41.258 60.9235 41.2496 60.946 41.2344 60.9638C41.2192 60.9816 41.1981 60.9936 41.1747 60.9979Z" fill="#1AAF32"/>
<path opacity="0.5" d="M131.558 45.827C131.558 46.0245 131.394 46.1025 131.28 46.1301C129.828 46.5388 128.152 47.1312 127.11 48.2287C125.831 49.5742 125.289 51.5763 124.833 53.6198C124.811 53.6749 124.715 53.9045 124.542 53.8999C124.369 53.8953 124.278 53.7025 124.26 53.6474C123.909 51.9804 123.44 50.1068 122.539 48.9037C121.405 47.3929 119.725 46.6811 118.013 46.1852C118.013 46.1852 117.558 46.0704 117.558 45.8362C117.558 45.602 117.877 45.5285 117.877 45.5285C119.434 45.0923 121.127 44.4953 122.216 43.2325C123.304 41.9696 123.859 40.018 124.26 38.0893C124.258 38.0664 124.258 38.0433 124.26 38.0204C124.284 37.9586 124.325 37.9051 124.378 37.8661C124.431 37.827 124.495 37.8041 124.56 37.8C124.774 37.8 124.87 38.1765 124.87 38.1765C125.28 39.9399 125.926 41.8135 126.928 43.0488C128.075 44.454 129.659 45.0877 131.321 45.5469C131.382 45.5684 131.435 45.6057 131.477 45.6549C131.518 45.7041 131.546 45.7634 131.558 45.827Z" fill="#1AAF32"/>
</g>
<defs>
<clipPath id="clip0_52280_7218">
<rect width="140" height="80" fill="white"/>
</clipPath>
</defs>
</svg>
