<svg width="20" height="20" viewBox="0 0 20 20" fill="none" xmlns="http://www.w3.org/2000/svg">
    <path fill-rule="evenodd" clip-rule="evenodd"
        d="M6.24352 1.66669C6.5937 1.66669 6.87758 1.95056 6.87758 2.30074V3.06646H13.3087V2.30074C13.3087 1.95056 13.5926 1.66669 13.9428 1.66669C14.293 1.66669 14.5769 1.95056 14.5769 2.30074V3.06646H16.7933C17.6438 3.06646 18.3332 3.75588 18.3332 4.60631V6.56625V7.83437V16.0935C18.3332 16.9439 17.6438 17.6333 16.7933 17.6333H3.20636C2.35592 17.6333 1.6665 16.9439 1.6665 16.0935V7.83437V6.56625V4.60631C1.6665 3.75588 2.35592 3.06646 3.20636 3.06646H5.60946V2.30074C5.60946 1.95056 5.89334 1.66669 6.24352 1.66669ZM13.3087 4.33458V4.86717C13.3087 5.21735 13.5926 5.50123 13.9428 5.50123C14.293 5.50123 14.5769 5.21735 14.5769 4.86717V4.33458H16.7933C16.9434 4.33458 17.0651 4.45624 17.0651 4.60631V6.56625H2.93462V4.60631C2.93462 4.45624 3.05628 4.33458 3.20636 4.33458H5.60946V4.86717C5.60946 5.21735 5.89334 5.50123 6.24352 5.50123C6.5937 5.50123 6.87758 5.21735 6.87758 4.86717V4.33458H13.3087ZM2.93462 7.83437V16.0935C2.93462 16.2435 3.05628 16.3652 3.20636 16.3652H16.7933C16.9434 16.3652 17.0651 16.2435 17.0651 16.0935V7.83437H2.93462Z"
        fill="#575859" />
</svg>
