<svg width="24" height="24" viewBox="0 0 24 24" fill="none" xmlns="http://www.w3.org/2000/svg">
    <path fill-rule="evenodd" clip-rule="evenodd"
        d="M18.0105 19.1421C18.3229 19.4546 18.8294 19.4546 19.1418 19.1421C19.4542 18.8297 19.4543 18.3232 19.1418 18.0108L13.2732 12.1421L19.284 6.13139C19.5964 5.81898 19.5964 5.31244 19.284 5.00002C18.9715 4.6876 18.465 4.6876 18.1526 5.00002L12.1418 11.0108L6.13107 5C5.81865 4.68758 5.31211 4.68758 4.9997 5C4.68728 5.31242 4.68728 5.81895 4.9997 6.13137L11.0105 12.1421L5.14183 18.0108C4.82941 18.3232 4.82941 18.8297 5.14183 19.1422C5.45425 19.4546 5.96078 19.4546 6.2732 19.1422L12.1418 13.2735L18.0105 19.1421Z"
        fill="#F5222D" />
</svg>
