<svg width="16" height="16" viewBox="0 0 16 16" fill="none" xmlns="http://www.w3.org/2000/svg">
<path fill-rule="evenodd" clip-rule="evenodd" d="M7.14301 2.53334C4.59723 2.53334 2.53346 4.59711 2.53346 7.14289C2.53346 9.68867 4.59723 11.7524 7.14301 11.7524C8.40553 11.7524 9.5495 11.2449 10.382 10.4227C10.3884 10.4155 10.395 10.4085 10.4019 10.4017C10.4087 10.3949 10.4157 10.3882 10.4228 10.3818C11.245 9.54934 11.7526 8.40539 11.7526 7.14289C11.7526 4.59711 9.68879 2.53334 7.14301 2.53334ZM11.5162 10.7618C12.33 9.7794 12.8192 8.51827 12.8192 7.14289C12.8192 4.008 10.2779 1.46667 7.14301 1.46667C4.00812 1.46667 1.4668 4.008 1.4668 7.14289C1.4668 10.2778 4.00812 12.8191 7.14301 12.8191C8.51841 12.8191 9.77956 12.3299 10.7619 11.516L13.623 14.3771C13.8313 14.5854 14.169 14.5854 14.3773 14.3771C14.5855 14.1688 14.5855 13.8311 14.3773 13.6229L11.5162 10.7618Z" fill="#000D0B"/>
<path fill-rule="evenodd" clip-rule="evenodd" d="M1.40015 7.1429C1.40015 3.9712 3.97132 1.40002 7.14303 1.40002C10.3147 1.40002 12.8859 3.9712 12.8859 7.1429C12.8859 8.51255 12.4063 9.77037 11.606 10.7574L14.4244 13.5757C14.6587 13.81 14.6587 14.1899 14.4244 14.4243C14.1901 14.6586 13.8102 14.6586 13.5759 14.4243L10.7575 11.6059C9.77053 12.4062 8.5127 12.8858 7.14303 12.8858C3.97132 12.8858 1.40015 10.3146 1.40015 7.1429ZM7.14303 1.53336C4.04496 1.53336 1.53348 4.04484 1.53348 7.1429C1.53348 10.241 4.04496 12.7524 7.14303 12.7524C8.50233 12.7524 9.74856 12.269 10.7194 11.4647L10.7662 11.426L13.6702 14.33C13.8524 14.5122 14.1479 14.5122 14.3301 14.33C14.5124 14.1477 14.5124 13.8523 14.3301 13.67L11.4261 10.766L11.4649 10.7193C12.2692 9.7484 12.7526 8.50219 12.7526 7.1429C12.7526 4.04484 10.2411 1.53336 7.14303 1.53336ZM7.14303 2.60002C4.63406 2.60002 2.60015 4.63394 2.60015 7.1429C2.60015 9.65187 4.63406 11.6858 7.14303 11.6858C8.38662 11.6858 9.51339 11.1862 10.3338 10.3766C10.3406 10.3691 10.3475 10.3618 10.3547 10.3546C10.3619 10.3474 10.3693 10.3404 10.3767 10.3336C11.1863 9.51323 11.6859 8.38648 11.6859 7.1429C11.6859 4.63394 9.65199 2.60002 7.14303 2.60002ZM2.46681 7.1429C2.46681 4.5603 4.56042 2.46669 7.14303 2.46669C9.72563 2.46669 11.8192 4.5603 11.8192 7.1429C11.8192 8.42364 11.3043 9.58424 10.4703 10.4287L10.4675 10.4315C10.4612 10.4371 10.455 10.4428 10.449 10.4489C10.443 10.4549 10.4372 10.461 10.4316 10.4672L10.4289 10.4702C9.58448 11.3042 8.42378 11.8191 7.14303 11.8191C4.56042 11.8191 2.46681 9.7255 2.46681 7.1429Z" fill="#575859"/>
</svg>
